<svg xmlns="http://www.w3.org/2000/svg" viewBox="0 0 186.5 140.23"><defs><style>.cls-1,.cls-5{fill:#fff;}.cls-2,.cls-3,.cls-6,.cls-7{fill:none;}.cls-2,.cls-4,.cls-5,.cls-6{stroke:#1b1464;}.cls-2,.cls-3,.cls-4,.cls-5,.cls-6,.cls-7{stroke-miterlimit:10;}.cls-2{stroke-width:10px;}.cls-3{stroke:#93d0d9;stroke-width:7px;}.cls-4{fill:#93d0d9;fill-opacity:0.8;stroke-width:2px;}.cls-7{stroke:#a189b5;}</style></defs><title>logo</title><g id="Layer_2" data-name="Layer 2"><g id="Layer_1-2" data-name="Layer 1"><circle class="cls-1" cx="40.75" cy="53.48" r="35.75"/><circle class="cls-2" cx="40.75" cy="53.48" r="35.75"/><circle class="cls-3" cx="40.75" cy="53.48" r="35.75"/><path class="cls-4" d="M125.16,12,129,52.91a10.32,10.32,0,0,1-17.37,8.45L66.69,18.82A10.32,10.32,0,0,1,74.19,1l41.09,1.6A10.32,10.32,0,0,1,125.16,12Z"/><text/><text/><text/><circle class="cls-1" cx="145.75" cy="99.48" r="35.75"/><circle class="cls-2" cx="145.75" cy="99.48" r="35.75"/><circle class="cls-3" cx="145.75" cy="99.48" r="35.75"/><polygon class="cls-5" points="154.41 90.77 141.2 87.68 132.08 96.84 136.18 109.09 149.39 112.19 158.51 103.02 154.41 90.77"/><line class="cls-6" x1="136.4" y1="108.73" x2="120.9" y2="119.81"/><line class="cls-6" x1="149" y1="111.73" x2="156" y2="128.73"/><line class="cls-6" x1="159" y1="102.73" x2="177.42" y2="99.48"/><line class="cls-6" x1="141" y1="87.73" x2="132.38" y2="71.72"/><line class="cls-6" x1="132" y1="96.73" x2="114.64" y2="92.4"/><line class="cls-6" x1="154" y1="90.73" x2="168" y2="77.73"/><polygon class="cls-5" points="49.41 43.77 36.2 40.68 27.08 49.84 31.18 62.09 44.39 65.19 53.51 56.02 49.41 43.77"/><line class="cls-6" x1="31" y1="61.73" x2="15" y2="72.73"/><line class="cls-6" x1="44" y1="64.73" x2="52" y2="83.73"/><line class="cls-6" x1="53" y1="55.73" x2="72" y2="52.73"/><line class="cls-6" x1="36.2" y1="40.68" x2="27.4" y2="24.18"/><line class="cls-6" x1="27" y1="49.73" x2="11" y2="45.73"/><line class="cls-6" x1="49" y1="43.73" x2="63" y2="30.73"/><line class="cls-7" x1="71" y1="91.73" x2="71" y2="91.73"/></g></g></svg>